<?xml version="1.0" standalone="no"?>
<!DOCTYPE svg PUBLIC "-//W3C//DTD SVG 20010904//EN"
 "http://www.w3.org/TR/2001/REC-SVG-20010904/DTD/svg10.dtd">
<svg version="1.0" xmlns="http://www.w3.org/2000/svg"
 width="4096.000000pt" height="4096.000000pt" viewBox="0 0 4096.000000 4096.000000"
 preserveAspectRatio="xMidYMid meet">

<g transform="translate(0.000000,4096.000000) scale(0.100000,-0.100000)"
fill="#000000" stroke="none">
<path d="M0 20480 l0 -20480 20480 0 20480 0 0 20480 0 20480 -20480 0 -20480
0 0 -20480z m20841 11425 c263 -18 435 -37 619 -69 276 -48 387 -70 402 -78
10 -5 68 -19 130 -33 147 -32 235 -54 278 -70 19 -7 62 -21 95 -31 33 -9 98
-31 145 -47 47 -16 101 -34 120 -39 19 -6 82 -30 140 -53 58 -23 123 -48 145
-55 46 -15 302 -136 455 -216 58 -30 129 -66 159 -80 30 -14 77 -40 105 -59
28 -18 89 -54 136 -80 47 -26 101 -61 122 -77 20 -15 51 -35 70 -43 18 -9 74
-44 123 -80 50 -35 126 -89 170 -119 44 -31 105 -76 135 -101 30 -24 91 -73
135 -107 414 -321 852 -792 1097 -1178 23 -36 50 -78 60 -93 29 -42 238 -443
238 -456 0 -7 10 -31 21 -54 12 -23 25 -53 30 -67 9 -27 26 -73 59 -160 12
-30 30 -84 40 -120 10 -36 25 -83 33 -105 14 -38 49 -192 82 -360 8 -44 25
-163 36 -265 19 -162 21 -221 16 -480 -6 -296 -20 -445 -67 -730 -18 -112
-141 -652 -153 -675 -6 -11 -18 -51 -28 -90 -18 -71 -39 -140 -65 -207 -8 -21
-20 -55 -28 -75 -97 -262 -182 -445 -309 -668 -137 -242 -190 -329 -212 -355
-12 -14 -44 -56 -71 -95 -60 -86 -225 -286 -348 -420 -160 -176 -410 -395
-626 -550 -19 -14 -60 -43 -90 -64 -30 -22 -84 -56 -120 -77 -36 -20 -90 -54
-120 -75 -30 -20 -104 -66 -165 -102 -148 -87 -241 -144 -292 -178 -23 -16
-45 -29 -50 -29 -5 0 -31 -15 -58 -34 -28 -18 -60 -36 -71 -40 -12 -3 -29 -15
-39 -26 -10 -11 -22 -20 -28 -20 -5 0 -48 -24 -95 -53 -48 -29 -94 -57 -102
-60 -8 -4 -27 -15 -41 -25 -49 -32 -229 -137 -278 -162 -27 -14 -58 -32 -68
-41 -10 -9 -47 -31 -83 -49 -36 -17 -76 -38 -90 -46 -85 -49 -293 -147 -335
-159 -45 -13 -19 -14 245 -7 647 16 1334 -1 1795 -43 356 -33 482 -47 535 -60
30 -7 102 -18 160 -25 58 -7 130 -18 160 -25 30 -8 82 -17 115 -20 33 -4 103
-17 155 -30 52 -13 143 -35 201 -49 59 -14 115 -26 125 -26 28 0 422 -122 544
-168 103 -39 148 -57 300 -122 41 -17 88 -36 104 -42 16 -6 63 -30 105 -53
138 -76 425 -217 495 -242 38 -14 83 -33 100 -44 17 -10 38 -19 47 -19 9 0 48
-13 88 -29 67 -28 126 -46 251 -77 30 -7 79 -20 109 -28 51 -15 106 -24 286
-46 106 -14 375 -11 510 4 145 17 332 57 429 92 39 14 85 29 101 33 79 22 368
166 466 234 26 18 77 50 113 72 37 22 101 65 144 96 42 31 89 62 103 70 14 8
107 73 207 144 100 72 212 152 249 178 38 26 86 63 108 82 46 40 192 156 250
200 60 45 263 252 325 333 92 119 132 118 231 -8 48 -60 80 -125 123 -250 20
-57 41 -108 45 -114 5 -6 21 -56 36 -111 14 -55 31 -111 37 -125 14 -31 62
-213 93 -348 12 -57 28 -115 33 -130 6 -15 15 -56 22 -92 6 -36 17 -85 25
-110 26 -85 98 -510 117 -695 16 -153 17 -726 0 -810 -6 -33 -16 -87 -21 -120
-14 -83 -97 -357 -128 -425 -59 -128 -97 -203 -117 -227 -12 -15 -39 -55 -61
-89 -22 -34 -53 -81 -70 -105 -16 -24 -34 -52 -40 -61 -12 -19 -99 -146 -185
-268 -33 -47 -70 -101 -84 -120 -13 -19 -42 -55 -65 -80 l-40 -45 28 -14 c28
-13 51 -62 51 -108 0 -11 7 -40 16 -64 8 -24 19 -64 24 -89 4 -25 16 -85 26
-135 36 -185 21 -497 -32 -670 -9 -27 -20 -66 -26 -85 -14 -48 -92 -208 -123
-254 -14 -20 -25 -39 -25 -41 0 -12 -112 -159 -170 -223 -94 -105 -356 -319
-418 -343 -13 -5 -42 -22 -65 -38 -51 -35 -109 -67 -417 -228 -47 -24 -103
-54 -125 -67 -36 -20 -79 -43 -276 -150 -31 -17 -105 -57 -165 -88 -114 -60
-227 -122 -304 -165 -25 -14 -76 -43 -115 -63 -38 -21 -75 -49 -82 -62 -6 -12
-19 -88 -28 -168 -23 -206 -72 -552 -91 -640 -15 -70 -34 -135 -66 -220 -16
-43 -119 -236 -150 -282 -139 -202 -355 -441 -558 -618 -47 -40 -101 -90 -120
-109 -48 -49 -338 -269 -541 -410 -35 -25 -92 -66 -126 -93 -34 -26 -65 -48
-68 -48 -3 0 -34 -21 -70 -48 -35 -26 -78 -57 -97 -70 -18 -12 -61 -43 -96
-67 -34 -25 -64 -45 -66 -45 -6 0 -129 -83 -147 -98 -8 -7 -26 -21 -41 -30
-14 -9 -65 -43 -112 -74 -48 -32 -88 -58 -91 -58 -2 0 -31 -18 -65 -41 -34
-23 -90 -54 -124 -69 -59 -27 -63 -28 -156 -18 -105 11 -2761 4 -4445 -12
-555 -5 -1536 -14 -2180 -20 -643 -6 -1559 -15 -2035 -20 -476 -5 -1466 -15
-2201 -22 l-1336 -12 -124 34 c-68 18 -131 37 -139 41 -8 4 -51 19 -95 33 -44
13 -93 29 -110 35 -16 6 -124 43 -240 83 -115 39 -246 84 -290 100 -44 16
-107 37 -140 48 -33 10 -85 28 -115 40 -30 12 -75 28 -100 35 -67 20 -110 35
-160 58 -25 11 -58 23 -75 28 -101 27 -488 206 -545 251 -15 13 -51 37 -79 53
-83 48 -241 165 -342 252 -94 80 -275 267 -343 353 -20 25 -64 80 -99 123 -84
107 -86 109 -152 212 -32 50 -69 106 -81 125 -13 19 -28 46 -34 60 -6 14 -24
48 -40 75 -80 140 -190 378 -240 519 -10 28 -46 122 -79 210 -34 87 -61 165
-61 174 0 8 -11 44 -24 81 -13 36 -27 86 -31 111 -3 25 -13 63 -20 85 -15 42
-65 328 -85 480 -28 214 -23 695 10 990 10 95 65 397 79 440 5 17 17 59 27 95
9 36 23 85 30 109 8 25 14 52 14 60 0 23 120 357 175 486 25 61 52 126 60 146
7 20 36 80 64 133 28 54 51 102 51 109 0 7 28 62 62 122 33 61 79 144 102 185
23 42 49 87 59 100 10 14 40 63 67 110 26 47 57 96 68 110 10 14 29 45 42 70
13 25 41 71 64 104 23 32 70 103 106 156 62 93 93 139 175 255 19 28 50 73 68
100 19 28 44 59 57 70 12 11 34 38 48 60 14 22 50 71 81 108 31 38 73 89 95
115 45 55 277 308 368 402 119 122 361 342 458 415 36 27 85 66 110 88 25 21
59 46 75 55 17 8 49 29 72 46 22 17 56 40 74 51 18 11 55 34 83 52 50 32 362
190 641 326 77 38 147 72 155 78 8 5 26 14 40 20 14 5 43 21 65 34 22 13 54
32 70 41 17 9 35 22 40 29 6 7 20 19 33 27 51 34 102 90 102 112 0 72 -133 89
-501 65 -134 -9 -221 -9 -365 0 -235 14 -537 59 -679 101 -38 11 -79 20 -91
20 -12 0 -55 12 -95 26 -41 14 -118 38 -173 55 -54 16 -104 33 -110 37 -6 5
-31 14 -56 21 -39 10 -96 32 -225 85 -16 7 -57 25 -90 40 -33 15 -85 38 -115
52 -30 14 -112 54 -181 89 -70 36 -133 65 -142 65 -8 0 -20 7 -27 15 -6 8 -50
35 -96 60 -88 47 -163 97 -288 189 -84 62 -406 378 -452 443 -16 23 -57 81
-92 130 -35 48 -82 118 -105 154 -87 136 -241 467 -277 594 -5 17 -25 75 -45
130 -20 55 -48 159 -64 230 -15 72 -33 140 -39 152 -7 12 -12 37 -12 56 0 19
-9 80 -21 136 -11 57 -19 105 -17 107 3 2 55 -1 116 -6 62 -6 160 -14 220 -19
547 -48 1196 -30 1622 45 147 26 414 84 440 95 14 7 48 17 75 24 28 8 93 29
145 48 52 19 104 38 115 41 19 7 110 50 223 105 98 48 270 161 357 234 263
222 463 497 575 792 12 33 29 76 36 95 20 52 134 515 134 545 0 30 95 418 111
455 6 14 26 79 45 145 18 66 40 140 48 165 22 66 54 167 76 235 36 116 51 160
65 190 8 17 17 44 21 60 4 17 12 41 19 55 21 40 85 198 85 208 0 9 70 174 94
222 7 14 20 42 29 63 9 20 24 54 33 75 16 38 33 73 51 107 6 11 30 58 53 105
86 174 114 226 141 267 16 23 29 47 29 54 0 7 23 49 52 93 28 45 66 105 85
133 18 29 33 55 33 58 0 10 99 170 130 211 16 21 70 98 120 171 49 72 94 134
100 138 11 7 73 86 126 162 17 24 43 56 57 71 14 15 54 59 88 97 166 183 467
453 580 517 25 15 52 34 59 43 7 9 43 34 79 56 36 22 89 56 116 75 125 87 528
294 760 391 33 14 84 36 113 49 29 13 59 24 68 24 8 0 33 9 54 20 37 19 180
71 245 90 17 4 44 13 60 19 29 10 136 42 280 82 39 11 90 26 115 34 25 7 70
19 100 25 30 7 73 18 95 26 39 13 573 119 750 148 93 15 311 47 450 65 71 10
471 46 600 54 157 10 706 5 906 -8z"/>
<path d="M16168 26507 c-335 -5 -608 -13 -608 -17 0 -13 172 -151 255 -206
250 -162 485 -228 728 -203 265 27 518 155 802 404 l40 35 -305 -2 c-168 -1
-578 -6 -912 -11z"/>
</g>
</svg>
