<?xml version="1.0" standalone="no"?>
<!DOCTYPE svg PUBLIC "-//W3C//DTD SVG 20010904//EN"
 "http://www.w3.org/TR/2001/REC-SVG-20010904/DTD/svg10.dtd">
<svg version="1.0" xmlns="http://www.w3.org/2000/svg"
 width="4096.000000pt" height="4096.000000pt" viewBox="0 0 4096.000000 4096.000000"
 preserveAspectRatio="xMidYMid meet">

<g transform="translate(0.000000,4096.000000) scale(0.100000,-0.100000)"
fill="#000000" stroke="none">
<path d="M0 20480 l0 -20480 20480 0 20480 0 0 20480 0 20480 -20480 0 -20480
0 0 -20480z m21125 18410 c193 -11 424 -27 515 -35 288 -27 893 -97 955 -110
33 -7 107 -18 165 -25 58 -6 134 -17 170 -25 36 -7 110 -21 165 -30 55 -9 128
-23 162 -31 34 -8 72 -14 85 -14 13 0 55 -6 93 -14 39 -8 129 -27 200 -41 72
-14 173 -35 225 -47 176 -38 995 -239 1020 -249 14 -6 72 -24 130 -40 231 -63
441 -126 580 -175 52 -18 142 -47 200 -65 58 -17 182 -60 275 -94 94 -34 184
-65 200 -69 38 -9 260 -92 390 -146 139 -58 238 -98 390 -158 72 -28 184 -76
250 -107 66 -32 136 -63 155 -70 57 -20 247 -107 501 -229 58 -28 116 -56 130
-62 41 -18 477 -244 602 -311 307 -165 361 -196 405 -227 26 -18 91 -56 144
-84 53 -28 118 -66 145 -85 26 -19 75 -49 108 -67 33 -19 74 -43 90 -55 17
-12 64 -40 105 -62 75 -41 133 -78 305 -194 50 -33 128 -85 175 -115 47 -29
111 -73 143 -96 33 -24 93 -67 135 -96 153 -105 242 -169 593 -430 154 -114
220 -166 324 -253 57 -48 118 -97 137 -110 18 -12 72 -56 119 -96 47 -40 114
-94 147 -121 61 -47 159 -132 386 -335 67 -59 155 -137 196 -174 241 -213 830
-801 1029 -1025 47 -53 140 -155 206 -226 66 -71 140 -154 165 -185 25 -31 94
-112 153 -181 59 -68 120 -140 135 -159 15 -20 54 -67 87 -105 33 -38 85 -102
115 -142 120 -159 157 -206 205 -259 28 -31 105 -135 173 -231 68 -96 141
-197 163 -225 49 -63 273 -385 337 -485 68 -106 91 -140 138 -201 22 -30 55
-81 74 -114 18 -33 50 -85 70 -115 107 -162 134 -205 195 -315 37 -66 72 -127
79 -135 12 -14 149 -256 318 -560 128 -231 172 -313 193 -365 12 -27 39 -81
62 -120 40 -69 94 -181 247 -510 18 -38 51 -109 74 -157 23 -48 42 -90 42 -93
0 -4 23 -56 51 -116 28 -61 73 -165 99 -232 26 -67 66 -162 89 -212 50 -111
156 -383 205 -528 20 -60 56 -159 80 -220 24 -62 58 -159 75 -217 18 -58 47
-145 66 -195 35 -97 71 -210 109 -345 14 -47 31 -105 39 -130 34 -98 73 -245
192 -720 148 -590 185 -753 240 -1065 19 -109 41 -225 60 -320 8 -38 19 -115
26 -170 6 -55 17 -125 24 -155 14 -59 103 -804 130 -1080 25 -264 54 -797 64
-1170 15 -541 -6 -1199 -59 -1860 -22 -287 -96 -931 -115 -1010 -7 -30 -20
-118 -29 -195 -9 -77 -23 -173 -31 -213 -39 -190 -44 -221 -50 -272 -3 -30
-17 -104 -30 -165 -13 -60 -31 -148 -40 -195 -43 -226 -250 -1080 -295 -1215
-15 -44 -39 -132 -55 -195 -15 -63 -34 -127 -41 -141 -7 -14 -22 -63 -34 -110
-11 -46 -29 -106 -40 -134 -10 -27 -35 -99 -54 -160 -20 -60 -61 -182 -92
-270 -31 -88 -66 -187 -76 -220 -42 -127 -428 -1088 -471 -1172 -15 -29 -36
-76 -48 -105 -11 -29 -53 -118 -92 -198 -39 -80 -102 -210 -141 -290 -119
-247 -167 -343 -206 -410 -21 -36 -53 -96 -72 -135 -55 -112 -475 -842 -537
-935 -32 -47 -70 -107 -86 -135 -37 -65 -251 -392 -350 -535 -14 -19 -38 -55
-54 -80 -16 -25 -40 -58 -54 -75 -24 -30 -161 -221 -224 -313 -49 -71 -122
-167 -180 -237 -29 -34 -65 -83 -80 -108 -39 -64 -118 -161 -440 -545 -410
-489 -613 -711 -1009 -1106 -427 -426 -679 -655 -1234 -1123 -166 -141 -231
-193 -340 -273 -109 -80 -168 -126 -220 -170 -30 -26 -86 -68 -125 -95 -38
-27 -81 -58 -95 -71 -30 -26 -650 -452 -792 -544 -55 -36 -142 -92 -192 -126
-50 -33 -134 -84 -186 -114 -52 -29 -107 -62 -122 -72 -15 -10 -111 -67 -215
-127 -103 -59 -219 -127 -258 -151 -38 -24 -105 -61 -150 -83 -44 -22 -111
-57 -148 -79 -37 -22 -135 -73 -216 -113 -82 -41 -171 -87 -198 -103 -26 -15
-73 -38 -103 -51 -30 -13 -125 -57 -209 -98 -85 -41 -182 -86 -215 -100 -34
-14 -86 -38 -116 -53 -30 -16 -120 -55 -200 -88 -154 -64 -357 -148 -556 -231
-66 -27 -152 -59 -190 -71 -38 -12 -116 -41 -174 -65 -100 -41 -159 -62 -295
-104 -33 -11 -154 -51 -270 -89 -320 -107 -331 -110 -470 -148 -71 -20 -138
-40 -149 -46 -22 -12 -652 -178 -675 -178 -9 0 -79 -15 -156 -34 -155 -38
-325 -76 -455 -101 -106 -20 -203 -39 -300 -59 -41 -8 -110 -20 -154 -26 -43
-5 -82 -12 -86 -15 -5 -3 -73 -14 -152 -25 -78 -11 -159 -24 -178 -29 -35 -10
-597 -80 -810 -101 -322 -33 -836 -67 -1202 -80 -335 -11 -899 -12 -853 0 17
4 66 8 111 9 96 1 493 26 654 41 390 35 1006 107 1075 125 28 7 113 21 190 30
77 9 163 23 190 30 28 8 77 16 110 20 33 3 89 12 125 20 36 8 99 21 140 29
236 45 281 55 615 131 312 72 801 200 880 231 22 9 94 31 160 50 66 18 147 43
180 53 33 11 89 29 125 41 36 12 108 34 160 49 52 16 121 40 154 55 32 14 82
33 110 41 28 8 87 27 131 44 44 16 130 47 190 69 61 21 153 57 205 80 119 50
277 112 288 112 13 0 259 107 332 144 36 19 125 59 199 91 245 104 909 434
1065 529 33 20 64 36 68 36 5 0 41 20 81 43 39 24 101 59 137 77 36 18 77 40
91 51 14 10 64 40 110 67 81 47 112 66 299 182 47 29 105 65 130 80 25 15 83
51 130 80 47 29 101 62 120 73 19 12 51 35 71 51 20 17 74 53 119 80 46 27 97
61 114 76 17 15 59 44 94 65 35 20 78 49 95 64 18 15 82 62 142 105 160 112
209 148 268 198 28 24 68 55 87 68 19 13 60 45 90 70 30 25 71 57 90 70 19 13
73 56 120 95 47 39 101 82 120 95 50 35 333 275 637 541 54 48 123 112 153
143 30 32 89 86 130 121 112 95 657 649 773 785 31 36 81 90 112 120 71 68
378 423 442 511 18 24 67 82 109 129 41 47 90 105 107 130 17 25 51 70 77 100
25 30 57 71 70 90 13 19 45 60 70 90 26 30 61 75 79 100 17 25 54 74 81 110
27 36 57 76 66 90 46 67 70 102 134 190 38 52 86 120 106 150 20 30 50 73 65
95 47 66 92 135 157 238 34 53 88 139 120 190 33 50 78 124 102 162 24 39 69
111 100 160 31 50 75 119 98 155 22 36 54 92 71 126 17 34 54 99 82 145 29 46
63 107 77 134 13 28 52 102 87 165 34 63 101 191 149 284 48 93 91 176 96 185
29 54 153 318 207 441 144 324 346 798 359 842 8 26 28 77 44 114 17 36 30 71
30 77 0 7 16 50 36 97 19 47 44 110 54 140 23 67 58 167 100 280 17 47 42 124
55 173 14 48 31 100 38 115 8 15 33 97 56 182 23 85 51 180 62 210 27 73 125
424 132 475 4 22 25 105 47 183 22 78 40 152 40 164 0 12 11 63 24 113 14 49
32 128 41 175 9 47 23 114 30 150 8 36 21 101 30 145 9 44 23 107 30 140 7 33
16 85 20 115 4 30 13 80 20 110 7 30 21 114 30 185 9 72 23 155 30 185 17 69
99 720 115 920 89 1064 92 1938 10 2840 -5 52 -14 149 -19 215 -6 66 -17 166
-26 222 -8 57 -15 122 -15 145 0 51 -56 463 -64 477 -4 5 -15 76 -26 158 -11
81 -27 173 -34 203 -8 30 -18 84 -21 120 -4 36 -12 76 -17 89 -5 13 -13 58
-19 100 -5 42 -16 103 -23 136 -33 141 -66 285 -81 360 -9 44 -37 155 -61 247
-24 92 -44 174 -44 182 0 17 -53 210 -146 531 -58 199 -83 279 -146 470 -11
33 -33 101 -49 150 -16 50 -43 128 -60 175 -17 47 -39 110 -49 140 -21 61 -61
166 -109 282 -17 42 -31 80 -31 85 0 5 -19 52 -41 104 -23 52 -49 117 -59 144
-19 53 -84 205 -169 393 -28 61 -74 163 -102 225 -28 61 -64 141 -79 177 -16
36 -57 121 -92 190 -35 69 -73 145 -85 170 -11 25 -38 77 -59 115 -21 39 -59
111 -85 160 -25 50 -63 120 -83 157 -20 37 -52 96 -70 130 -18 35 -52 92 -74
126 -23 35 -44 73 -48 84 -3 12 -28 54 -55 95 -26 41 -51 83 -55 95 -3 12 -41
74 -83 138 -42 64 -98 154 -126 199 -96 157 -224 356 -248 386 -13 17 -73 104
-134 195 -60 91 -118 172 -128 180 -10 8 -49 60 -87 115 -86 126 -132 188
-184 251 -22 27 -55 69 -73 94 -52 74 -114 155 -151 200 -19 23 -64 77 -100
121 -36 43 -99 119 -140 170 -41 50 -113 134 -160 186 -47 52 -92 106 -100
119 -22 33 -496 536 -692 734 -233 237 -640 614 -823 764 -33 28 -85 73 -116
100 -31 28 -97 85 -148 126 -51 41 -112 91 -135 111 -22 20 -57 47 -77 60 -19
13 -75 56 -125 96 -137 111 -212 168 -294 225 -41 28 -96 69 -122 91 -119 99
-980 673 -1153 768 -33 18 -80 46 -104 62 -24 17 -100 61 -168 98 -68 38 -181
101 -251 140 -70 39 -167 92 -217 118 -49 25 -161 83 -247 128 -145 76 -285
141 -798 376 -102 46 -203 90 -225 97 -22 7 -82 32 -134 56 -52 24 -98 44
-103 44 -10 0 -158 56 -263 100 -115 48 -197 78 -260 96 -33 9 -78 25 -100 35
-42 18 -145 53 -350 117 -67 21 -126 41 -132 45 -22 14 -581 177 -607 177 -9
0 -85 20 -169 45 -85 25 -163 45 -173 45 -10 0 -59 11 -109 24 -49 13 -126 32
-170 41 -44 9 -107 22 -140 30 -33 7 -96 20 -140 30 -44 9 -107 23 -140 30
-33 8 -82 17 -110 21 -27 3 -75 12 -105 20 -30 7 -134 25 -231 38 -96 14 -186
29 -200 34 -34 13 -578 80 -824 102 -66 6 -163 15 -215 20 -320 33 -813 50
-1335 48 -314 -1 -376 -3 -265 -9 349 -17 551 -30 630 -39 47 -5 139 -14 205
-20 66 -6 210 -22 320 -35 110 -14 263 -32 340 -41 77 -9 151 -21 164 -26 14
-5 104 -20 200 -34 97 -13 201 -31 231 -38 30 -8 78 -17 105 -21 47 -6 122
-21 245 -50 58 -14 140 -32 275 -60 44 -9 121 -27 170 -40 156 -40 229 -58
275 -67 104 -22 843 -242 1030 -307 47 -16 114 -39 150 -51 107 -36 220 -77
305 -110 44 -17 109 -42 145 -55 139 -50 196 -72 235 -92 22 -11 58 -26 80
-33 22 -7 65 -25 95 -40 30 -15 73 -33 95 -40 22 -7 121 -50 221 -96 100 -46
186 -84 192 -84 20 0 859 -423 909 -458 15 -11 57 -34 92 -52 36 -18 81 -42
100 -55 20 -12 70 -41 111 -65 146 -84 196 -114 277 -164 45 -28 123 -76 173
-106 50 -30 116 -72 148 -93 31 -20 83 -54 115 -75 142 -91 238 -156 317 -212
149 -105 253 -178 330 -232 41 -28 111 -81 156 -117 44 -36 116 -91 159 -121
44 -30 97 -71 119 -90 23 -20 59 -49 80 -65 22 -16 60 -47 86 -69 26 -23 73
-61 104 -86 124 -98 340 -284 488 -419 62 -57 173 -158 246 -225 150 -136 594
-584 747 -753 204 -225 314 -351 385 -438 41 -50 94 -113 119 -141 71 -79 161
-189 189 -231 14 -21 62 -83 107 -138 45 -55 92 -116 105 -135 13 -19 51 -69
85 -110 62 -76 77 -96 185 -250 33 -47 80 -112 104 -145 25 -33 55 -78 67
-100 26 -48 92 -146 130 -195 15 -19 43 -60 61 -91 18 -31 51 -83 73 -117 22
-34 65 -102 95 -152 30 -50 65 -105 77 -123 12 -18 35 -54 51 -82 29 -50 68
-117 139 -237 38 -66 91 -161 204 -368 87 -159 439 -868 439 -885 0 -6 25 -62
55 -124 30 -62 55 -117 55 -124 0 -6 18 -50 40 -97 36 -78 85 -199 145 -355
13 -33 37 -96 55 -140 32 -81 64 -168 119 -328 17 -48 35 -96 41 -107 20 -37
276 -875 309 -1010 19 -78 43 -172 66 -260 13 -47 30 -119 39 -160 49 -221 58
-261 85 -370 6 -25 18 -84 25 -132 8 -48 17 -92 21 -98 3 -6 17 -79 30 -163
12 -83 28 -170 34 -192 15 -54 81 -499 81 -550 0 -22 7 -83 16 -135 8 -52 20
-142 25 -200 6 -58 14 -148 19 -200 24 -241 31 -334 45 -605 18 -340 21 -1107
5 -1385 -32 -549 -49 -742 -96 -1115 -45 -355 -75 -569 -85 -600 -6 -16 -23
-114 -39 -218 -16 -103 -32 -192 -35 -197 -3 -5 -12 -47 -20 -92 -8 -46 -22
-112 -30 -148 -9 -36 -23 -101 -31 -145 -8 -44 -26 -118 -39 -165 -12 -47 -31
-121 -40 -165 -10 -44 -28 -117 -41 -161 -13 -45 -24 -90 -24 -100 0 -9 -20
-81 -45 -160 -25 -78 -45 -150 -45 -159 0 -22 -165 -547 -182 -578 -6 -12 -33
-85 -59 -162 -49 -147 -93 -267 -154 -425 -20 -52 -47 -122 -60 -155 -13 -33
-35 -88 -49 -122 -14 -35 -37 -89 -50 -120 -13 -32 -38 -89 -56 -128 -60 -131
-98 -220 -105 -242 -19 -68 -470 -953 -575 -1128 -23 -38 -57 -97 -77 -130
-20 -33 -52 -89 -73 -125 -20 -36 -57 -97 -82 -136 -26 -40 -56 -89 -68 -110
-11 -22 -31 -53 -43 -70 -12 -18 -31 -47 -42 -65 -37 -60 -79 -125 -160 -244
-44 -65 -93 -139 -110 -165 -40 -64 -91 -135 -134 -189 -20 -24 -47 -63 -61
-87 -27 -46 -89 -131 -185 -253 -34 -42 -72 -92 -85 -111 -40 -57 -220 -281
-277 -343 -29 -32 -71 -84 -92 -116 -22 -32 -83 -105 -137 -162 -53 -57 -127
-140 -164 -184 -229 -273 -869 -908 -1200 -1190 -51 -44 -130 -114 -175 -156
-45 -41 -112 -97 -149 -125 -38 -27 -147 -112 -245 -189 -97 -78 -192 -152
-211 -165 -19 -13 -78 -58 -130 -100 -104 -83 -149 -116 -255 -186 -38 -26
-90 -63 -114 -83 -24 -20 -63 -47 -87 -61 -23 -14 -82 -52 -130 -85 -87 -60
-152 -102 -213 -140 -18 -11 -47 -30 -65 -42 -17 -12 -52 -34 -78 -47 -26 -14
-49 -30 -53 -36 -3 -6 -25 -20 -48 -31 -23 -12 -80 -45 -127 -74 -146 -89
-251 -150 -363 -209 -60 -31 -132 -72 -160 -90 -115 -73 -943 -477 -1068 -521
-19 -7 -60 -25 -90 -40 -30 -16 -83 -38 -119 -51 -36 -12 -103 -39 -150 -59
-47 -20 -119 -49 -160 -65 -41 -15 -118 -45 -170 -65 -194 -77 -841 -287
-1135 -370 -288 -81 -344 -95 -435 -115 -57 -12 -238 -57 -305 -75 -27 -7 -75
-17 -105 -20 -30 -4 -66 -12 -80 -17 -14 -5 -91 -21 -171 -34 -80 -13 -157
-27 -170 -32 -42 -16 -772 -123 -969 -143 -52 -5 -135 -13 -185 -18 -228 -25
-318 -32 -570 -46 -347 -19 -924 -30 -1087 -20 l-128 7 0 16122 c0 8868 3
16126 7 16129 7 8 110 4 598 -23z m-685 -1510 l0 -1530 33 -2 32 -1 -33 -4
-32 -4 2 -14589 3 -14588 -195 -7 c-232 -9 -700 0 -1075 21 -256 14 -356 21
-575 44 -52 6 -133 14 -180 19 -252 26 -835 112 -930 137 -30 8 -109 23 -175
33 -66 11 -131 24 -145 29 -14 5 -50 13 -80 17 -30 3 -77 13 -105 20 -67 18
-248 63 -305 75 -91 20 -159 38 -435 115 -299 84 -938 292 -1135 370 -52 20
-129 50 -170 65 -41 16 -113 45 -160 65 -47 20 -114 47 -150 59 -36 13 -92 37
-125 53 -33 17 -71 34 -85 38 -26 8 -266 119 -505 233 -220 106 -546 272 -590
302 -22 15 -103 61 -180 102 -77 41 -167 91 -200 111 -33 20 -104 62 -158 94
-54 32 -112 68 -130 80 -18 12 -52 34 -77 48 -25 14 -59 36 -76 48 -18 12 -47
31 -65 42 -60 37 -125 79 -214 140 -48 33 -106 71 -130 85 -23 14 -62 41 -86
61 -24 20 -75 57 -114 82 -101 67 -148 101 -255 187 -52 42 -111 87 -130 100
-19 13 -111 85 -205 160 -93 75 -192 151 -218 169 -27 18 -86 68 -131 110 -45
42 -125 112 -176 156 -161 138 -485 440 -686 640 -146 146 -511 533 -584 620
-37 44 -107 123 -156 176 -49 53 -111 126 -137 163 -27 37 -72 93 -101 124
-57 63 -198 237 -236 292 -13 19 -51 69 -85 111 -96 122 -158 207 -185 253
-14 24 -41 63 -61 87 -43 53 -94 124 -134 188 -16 27 -66 101 -110 166 -79
117 -122 181 -160 244 -11 18 -30 47 -42 65 -12 17 -30 45 -39 61 -9 17 -44
75 -78 130 -35 55 -89 145 -121 200 -32 55 -77 132 -100 170 -23 39 -82 147
-130 240 -48 94 -96 182 -106 196 -26 38 -346 698 -393 811 -21 51 -58 136
-81 188 -23 52 -45 102 -48 110 -3 8 -22 53 -42 100 -20 47 -45 108 -55 135
-10 28 -35 93 -55 145 -58 150 -103 274 -154 425 -26 77 -53 151 -60 164 -18
33 -181 552 -181 576 0 11 -21 83 -45 160 -25 76 -45 148 -45 158 0 11 -11 56
-24 101 -13 44 -32 117 -42 161 -9 44 -26 112 -37 150 -11 39 -26 102 -32 140
-7 39 -20 102 -29 140 -10 39 -24 106 -32 150 -8 44 -22 105 -29 135 -8 30
-24 120 -35 200 -12 80 -25 158 -31 174 -13 41 -59 340 -59 385 0 21 -9 96
-20 167 -11 71 -25 176 -31 234 -35 378 -45 500 -69 900 -26 432 -9 1489 31
1905 19 199 28 299 34 360 19 200 103 825 117 870 5 17 20 99 33 182 13 84 27
157 30 163 4 6 13 50 21 98 7 48 19 107 25 132 18 71 36 149 53 230 40 179 49
220 71 305 13 50 33 126 46 170 12 44 24 94 26 110 8 52 270 911 295 965 11
26 57 151 112 310 19 52 48 129 65 170 18 41 38 93 45 115 7 22 20 56 29 75 9
19 33 78 53 130 19 51 49 120 65 152 16 31 29 64 29 71 0 8 24 63 53 123 30
60 57 121 60 136 9 34 366 753 456 918 115 211 166 302 204 368 71 120 110
187 139 237 16 28 39 64 51 82 12 18 47 73 77 123 30 50 73 118 95 152 22 34
55 86 73 117 18 31 46 72 61 91 38 49 104 147 130 195 12 22 42 67 67 100 24
33 71 98 104 145 108 154 123 174 185 250 34 41 72 91 85 110 13 19 60 80 105
135 44 55 92 116 105 135 13 19 40 53 61 75 21 22 50 57 66 77 87 115 265 321
528 612 149 164 664 683 817 823 73 67 184 168 246 225 127 116 282 250 357
307 28 21 59 48 70 61 11 12 40 36 65 53 25 17 68 51 95 76 28 25 71 61 95 79
67 48 204 154 299 230 47 37 117 90 157 117 78 55 202 142 334 235 79 56 175
121 317 212 32 21 84 55 115 75 32 21 98 63 148 93 50 30 119 73 153 94 34 22
88 54 120 73 70 40 156 91 240 140 61 35 123 70 337 188 98 54 330 172 665
338 77 38 163 77 190 87 28 9 113 47 190 83 77 37 174 80 215 96 41 16 125 51
185 77 104 44 152 63 297 118 35 13 95 36 133 50 87 34 246 90 345 123 41 13
100 33 130 45 93 34 360 116 848 259 73 21 140 39 149 39 9 0 47 9 86 21 38
11 90 24 116 28 25 5 80 18 121 29 71 20 100 26 295 67 44 9 105 23 135 30
121 29 197 45 245 51 28 3 73 12 100 19 28 8 122 23 210 35 88 12 183 28 210
35 28 8 127 23 220 35 420 52 578 70 690 80 66 6 158 15 205 20 47 6 177 15
290 21 435 24 438 26 45 27 -493 2 -1010 -17 -1300 -48 -49 -5 -146 -14 -215
-20 -261 -22 -841 -95 -920 -116 -30 -7 -134 -25 -231 -38 -96 -14 -186 -29
-200 -34 -13 -5 -51 -12 -84 -16 -33 -4 -85 -13 -115 -21 -30 -7 -91 -21 -135
-30 -44 -9 -107 -22 -140 -30 -33 -7 -96 -20 -140 -30 -44 -9 -123 -27 -175
-40 -52 -13 -111 -26 -130 -29 -19 -3 -95 -24 -168 -46 -72 -22 -140 -40 -150
-40 -40 0 -582 -163 -832 -251 -47 -16 -116 -39 -155 -51 -38 -11 -86 -28
-105 -38 -19 -9 -57 -23 -85 -30 -53 -14 -184 -62 -300 -110 -101 -42 -200
-80 -209 -80 -3 0 -69 -27 -145 -60 -76 -33 -142 -60 -147 -60 -4 0 -75 -31
-158 -69 -83 -38 -264 -121 -403 -185 -139 -63 -332 -157 -430 -207 -98 -51
-218 -113 -268 -139 -49 -25 -148 -79 -220 -119 -71 -41 -179 -101 -240 -134
-60 -33 -135 -77 -165 -97 -30 -21 -75 -47 -100 -60 -123 -61 -1049 -677
-1168 -777 -26 -22 -81 -63 -122 -91 -41 -29 -104 -75 -140 -102 -136 -106
-275 -216 -314 -251 -23 -19 -57 -46 -76 -59 -19 -13 -60 -46 -91 -74 -31 -28
-102 -89 -159 -136 -241 -198 -622 -550 -909 -839 -230 -232 -671 -699 -715
-757 -28 -37 -85 -104 -249 -289 -30 -33 -67 -80 -84 -105 -17 -25 -45 -58
-63 -75 -18 -16 -46 -50 -63 -75 -17 -25 -46 -63 -66 -86 -20 -22 -53 -63 -73
-90 -35 -46 -71 -94 -180 -237 -26 -34 -83 -114 -126 -177 -44 -63 -87 -122
-97 -130 -10 -8 -67 -87 -127 -175 -60 -88 -121 -178 -137 -200 -27 -38 -108
-166 -236 -371 -33 -53 -95 -150 -137 -216 -42 -66 -80 -129 -84 -140 -3 -11
-28 -54 -55 -95 -26 -41 -51 -84 -55 -96 -4 -12 -24 -47 -44 -77 -21 -31 -49
-78 -63 -105 -14 -28 -43 -84 -66 -125 -23 -41 -61 -113 -85 -160 -24 -47 -63
-119 -85 -160 -23 -41 -55 -104 -72 -140 -17 -36 -66 -137 -109 -225 -43 -88
-97 -200 -118 -250 -42 -94 -93 -208 -184 -410 -30 -66 -65 -147 -78 -180 -13
-33 -47 -116 -76 -185 -29 -69 -56 -138 -60 -155 -4 -16 -18 -55 -32 -85 -26
-59 -58 -143 -97 -253 -14 -37 -36 -100 -50 -140 -15 -39 -40 -112 -56 -162
-16 -49 -43 -133 -60 -185 -17 -52 -40 -122 -51 -155 -53 -160 -231 -789 -241
-850 -2 -16 -19 -88 -37 -160 -41 -163 -70 -286 -105 -440 -15 -66 -33 -145
-40 -175 -8 -30 -17 -82 -20 -115 -4 -33 -13 -82 -20 -110 -8 -27 -17 -77 -20
-110 -4 -33 -13 -82 -20 -110 -8 -27 -21 -108 -30 -180 -9 -71 -23 -152 -30
-180 -17 -63 -81 -606 -105 -885 -6 -69 -15 -168 -20 -220 -45 -452 -62 -1286
-40 -1900 15 -407 57 -984 85 -1167 8 -57 15 -123 15 -147 0 -58 46 -404 65
-486 8 -36 22 -119 30 -185 9 -66 22 -149 30 -185 8 -36 17 -85 20 -110 3 -25
12 -76 21 -115 8 -38 21 -103 29 -143 8 -39 21 -105 30 -145 8 -39 22 -108 30
-152 9 -44 27 -122 41 -172 13 -51 24 -103 24 -115 0 -13 20 -95 45 -182 25
-87 45 -168 45 -178 0 -28 98 -384 121 -438 10 -25 39 -121 65 -215 25 -93 53
-186 61 -205 8 -19 28 -78 43 -130 28 -92 44 -141 110 -320 17 -47 37 -106 46
-132 8 -26 28 -77 44 -114 17 -36 30 -71 30 -77 0 -7 16 -50 36 -97 19 -47 43
-110 53 -140 17 -51 157 -378 349 -815 43 -99 95 -211 115 -250 21 -38 57
-113 82 -165 45 -98 67 -141 216 -421 49 -91 102 -193 118 -226 17 -33 54 -98
82 -144 29 -46 65 -111 81 -144 29 -58 45 -86 168 -280 31 -49 76 -121 100
-160 24 -38 69 -112 102 -162 129 -205 183 -291 216 -343 19 -30 46 -68 59
-85 13 -16 47 -64 74 -105 55 -83 133 -193 180 -255 16 -22 43 -60 59 -85 17
-25 52 -74 80 -110 27 -36 64 -85 81 -110 18 -25 53 -70 79 -100 25 -30 57
-71 70 -90 13 -19 45 -60 70 -90 26 -30 60 -75 77 -100 17 -25 68 -85 113
-135 45 -49 99 -115 120 -145 20 -30 66 -86 102 -125 35 -38 90 -101 122 -140
32 -38 111 -126 175 -195 65 -69 162 -173 216 -233 54 -59 103 -111 109 -115
6 -4 40 -38 75 -77 128 -139 688 -677 859 -826 41 -35 120 -104 177 -154 198
-171 340 -291 375 -315 19 -13 73 -56 120 -95 47 -39 101 -82 120 -95 19 -13
60 -45 90 -70 30 -25 71 -57 90 -70 19 -13 62 -47 96 -75 33 -27 82 -66 109
-85 27 -19 103 -74 169 -122 67 -48 155 -110 196 -138 41 -27 94 -64 117 -82
23 -18 82 -57 130 -86 48 -30 99 -64 113 -77 14 -13 48 -36 75 -53 50 -30 108
-65 265 -162 47 -29 105 -65 130 -80 25 -15 83 -51 130 -80 47 -29 123 -75
169 -102 46 -27 96 -57 110 -67 14 -11 58 -35 98 -54 40 -19 85 -44 100 -55
15 -11 60 -36 100 -55 40 -19 85 -44 100 -55 15 -11 91 -51 168 -90 585 -295
701 -352 870 -422 55 -23 134 -59 175 -80 81 -41 319 -143 360 -155 33 -9 185
-69 285 -112 44 -19 123 -50 175 -68 52 -19 133 -48 180 -65 47 -18 112 -40
145 -50 33 -10 87 -30 120 -45 33 -14 98 -37 145 -51 47 -13 121 -35 165 -50
44 -14 100 -33 125 -41 25 -8 104 -32 175 -53 72 -21 144 -43 160 -50 101 -40
724 -198 1165 -295 104 -23 176 -38 340 -70 47 -9 114 -22 150 -30 36 -8 92
-17 125 -21 33 -3 83 -12 110 -19 28 -7 111 -21 185 -29 74 -9 160 -23 190
-30 55 -14 330 -48 690 -85 334 -35 397 -40 695 -56 160 -9 319 -19 355 -23
116 -12 -417 -14 -780 -2 -611 19 -1004 49 -1650 127 -168 20 -318 40 -335 45
-16 5 -95 17 -173 28 -79 11 -147 22 -152 25 -4 3 -43 10 -86 15 -44 6 -113
17 -154 26 -98 20 -195 39 -300 59 -129 25 -300 63 -455 101 -77 19 -148 34
-158 34 -23 0 -667 170 -690 182 -11 5 -80 27 -155 48 -150 42 -140 39 -462
146 -124 41 -252 83 -285 93 -130 42 -163 53 -235 83 -41 16 -136 51 -210 78
-74 26 -207 78 -295 114 -88 37 -218 91 -290 121 -274 113 -322 133 -380 163
-33 17 -88 42 -122 56 -34 14 -115 52 -180 85 -65 32 -147 71 -183 86 -36 15
-103 47 -150 73 -47 25 -139 73 -205 105 -66 33 -151 77 -189 99 -37 22 -104
58 -149 80 -44 22 -110 58 -146 80 -36 23 -151 90 -254 149 -104 60 -200 117
-215 127 -15 10 -70 43 -122 72 -52 29 -133 79 -180 110 -47 31 -134 87 -193
126 -152 98 -797 541 -827 568 -14 13 -53 42 -87 65 -34 22 -90 65 -125 94
-63 52 -138 111 -228 177 -150 110 -175 132 -588 484 -73 63 -156 136 -185
162 -29 27 -105 94 -167 149 -328 287 -920 884 -1313 1323 -100 112 -574 675
-612 727 -16 22 -53 68 -82 103 -29 35 -61 78 -69 95 -9 18 -38 57 -64 87 -61
72 -128 160 -165 219 -16 25 -46 67 -66 91 -35 44 -143 194 -206 288 -18 26
-42 60 -55 76 -13 16 -36 51 -53 77 -16 27 -66 102 -109 167 -157 233 -193
288 -226 347 -18 33 -57 94 -85 135 -56 81 -480 819 -538 936 -19 40 -53 103
-75 140 -22 38 -66 123 -98 189 -152 317 -202 419 -259 535 -34 69 -66 136
-70 150 -4 14 -25 60 -46 102 -21 42 -60 132 -88 200 -27 68 -119 298 -205
511 -86 213 -161 409 -167 435 -7 26 -18 59 -25 73 -15 30 -86 235 -150 429
-24 74 -49 149 -55 165 -6 17 -24 75 -39 131 -15 55 -32 110 -38 121 -6 11
-25 75 -42 144 -17 68 -41 153 -54 189 -39 113 -261 1025 -301 1240 -9 47 -27
135 -40 195 -13 61 -27 135 -30 165 -3 30 -13 88 -21 127 -7 40 -21 106 -29
145 -8 40 -21 134 -30 208 -9 74 -22 164 -30 200 -15 67 -64 474 -86 705 -69
744 -97 1535 -79 2196 10 365 47 1030 70 1259 28 277 103 891 115 940 7 30 18
100 24 155 7 55 18 132 26 170 18 88 39 203 60 320 29 166 46 249 81 410 48
222 273 1129 295 1190 10 28 27 88 39 134 12 47 27 96 34 110 7 14 19 51 26
81 17 74 64 227 101 325 16 44 41 116 55 160 13 44 33 107 43 140 11 33 44
125 74 205 30 80 75 201 100 270 78 213 117 311 163 412 25 53 67 152 93 220
47 119 112 269 170 393 31 67 79 169 137 294 71 154 191 395 222 447 16 28 33
62 37 75 14 47 461 855 519 939 18 25 56 90 85 145 29 55 70 125 90 155 77
114 130 197 170 267 23 40 63 99 89 133 26 33 70 96 97 141 66 105 327 481
375 539 20 25 85 115 145 200 59 85 127 175 150 200 22 25 61 72 86 104 24 32
62 83 84 111 22 29 60 79 84 111 24 33 69 86 100 120 31 33 82 94 113 135 31
41 96 117 144 169 48 52 100 113 116 135 16 22 95 111 176 199 81 87 204 220
273 295 234 253 934 939 1029 1009 19 15 87 74 150 132 119 110 298 266 353
310 18 13 73 59 122 100 50 42 108 89 130 105 22 16 81 64 130 105 50 42 116
96 149 121 171 129 263 198 381 284 72 53 166 123 210 157 44 33 103 73 130
89 28 16 73 46 100 68 58 46 147 107 260 180 44 28 121 78 170 112 186 124
222 147 283 178 35 18 84 47 110 65 26 18 74 48 107 66 33 19 80 48 105 65 25
18 90 55 144 84 55 29 114 64 132 77 17 14 76 49 130 78 55 29 151 81 214 116
401 218 1197 608 1318 645 12 3 80 34 150 67 70 33 190 84 267 114 77 30 172
68 210 83 39 16 137 57 218 90 82 33 192 75 245 92 53 18 176 60 272 95 96 35
222 77 280 95 58 17 148 46 200 64 130 45 241 80 330 104 107 29 243 68 330
96 74 24 945 238 1090 268 308 65 418 86 495 97 33 4 80 13 105 18 25 6 90 18
145 27 55 9 129 23 165 30 36 8 110 19 165 25 55 6 132 17 170 25 69 14 738
93 985 116 205 19 826 56 958 58 l122 1 0 -1530z"/>
</g>
</svg>
